<svg xmlns="http://www.w3.org/2000/svg" width="934" height="934" viewBox="0 0 934 934" shape-rendering="crispEdges">
  <defs>
    <!-- FRAME drawn with non-scaling stroke to keep thickness stable -->
    <symbol id="frame" viewBox="0 0 40 40">
      <rect x="1" y="1" width="38" height="38" fill="none" stroke="black" stroke-width="2" vector-effect="non-scaling-stroke"/>
    </symbol>

    <!-- TARGET: exact half left black (20px) and half right white (20px) -->
    <symbol id="target" viewBox="0 0 40 40">
      <!-- right half white -->
      <rect x="20" y="0" width="20" height="40" fill="white"/>
      <!-- left half black -->
      <rect x="0"  y="0" width="20" height="40" fill="black"/>
      <use href="#frame"/>
    </symbol>

    <!-- DISTRACTORS: always part white, part black -->
    <symbol id="bar-right" viewBox="0 0 40 40">
      <rect x="0"  y="0" width="20" height="40" fill="white"/>
      <rect x="20" y="0" width="20" height="40" fill="black"/>
      <use href="#frame"/>
    </symbol>

    <symbol id="bar-top" viewBox="0 0 40 40">
      <rect x="0" y="0" width="40" height="20" fill="black"/>
      <rect x="0" y="20" width="40" height="20" fill="white"/>
      <use href="#frame"/>
    </symbol>

    <symbol id="bar-bottom" viewBox="0 0 40 40">
      <rect x="0" y="0" width="40" height="20" fill="white"/>
      <rect x="0" y="20" width="40" height="20" fill="black"/>
      <use href="#frame"/>
    </symbol>

    <symbol id="bar-center" viewBox="0 0 40 40">
      <rect x="0" y="0" width="40" height="40" fill="white"/>
      <rect x="14" y="0" width="12" height="40" fill="black"/>
      <use href="#frame"/>
    </symbol>

    <symbol id="diag-fwd" viewBox="0 0 40 40">
      <rect x="0" y="0" width="40" height="40" fill="white"/>
      <polygon points="0,0 40,0 0,40" fill="black"/>
      <use href="#frame"/>
    </symbol>

    <symbol id="diag-back" viewBox="0 0 40 40">
      <rect x="0" y="0" width="40" height="40" fill="white"/>
      <polygon points="40,0 40,40 0,40" fill="black"/>
      <use href="#frame"/>
    </symbol>

    <symbol id="tri-edges" viewBox="0 0 40 40">
      <rect x="0" y="0" width="40" height="40" fill="white"/>
      <polygon points="0,0 20,20 0,40" fill="black"/>
      <polygon points="40,0 20,20 40,40" fill="black"/>
      <use href="#frame"/>
    </symbol>

    <symbol id="top-and-right" viewBox="0 0 40 40">
      <rect width="40" height="40" fill="white"/>
      <rect x="0" y="0" width="40" height="8" fill="black"/>
      <rect x="32" y="8" width="8" height="32" fill="black"/>
      <use href="#frame"/>
    </symbol>

    <symbol id="diamond" viewBox="0 0 40 40">
      <rect width="40" height="40" fill="white"/>
      <polygon points="20,6 34,20 20,34 6,20" fill="black"/>
      <use href="#frame"/>
    </symbol>

    <symbol id="triplet" viewBox="0 0 40 40">
      <rect width="40" height="40" fill="white"/>
      <rect x="6" y="0" width="4" height="40" fill="black"/>
      <rect x="18" y="0" width="4" height="40" fill="black"/>
      <rect x="30" y="0" width="4" height="40" fill="black"/>
      <use href="#frame"/>
    </symbol>

    <symbol id="quad-UL" viewBox="0 0 40 40">
      <rect width="40" height="40" fill="white"/>
      <rect x="0" y="0" width="20" height="20" fill="black"/>
      <use href="#frame"/>
    </symbol>

    <symbol id="quad-LR" viewBox="0 0 40 40">
      <rect width="40" height="40" fill="white"/>
      <rect x="20" y="20" width="20" height="20" fill="black"/>
      <use href="#frame"/>
    </symbol>
  </defs>

  <rect x="0" y="0" width="934" height="934" fill="white"/>
  <g transform="translate(10,10)">
    <use href="#bar-top" x="0" y="0" width="40" height="40"/>
    <use href="#diamond" x="46" y="0" width="40" height="40"/>
    <use href="#tri-edges" x="92" y="0" width="40" height="40"/>
    <use href="#bar-right" x="138" y="0" width="40" height="40"/>
    <use href="#triplet" x="184" y="0" width="40" height="40"/>
    <use href="#bar-top" x="230" y="0" width="40" height="40"/>
    <use href="#target" x="276" y="0" width="40" height="40"/>
    <use href="#target" x="322" y="0" width="40" height="40"/>
    <use href="#bar-center" x="368" y="0" width="40" height="40"/>
    <use href="#quad-UL" x="414" y="0" width="40" height="40"/>
    <use href="#quad-UL" x="460" y="0" width="40" height="40"/>
    <use href="#target" x="506" y="0" width="40" height="40"/>
    <use href="#triplet" x="552" y="0" width="40" height="40"/>
    <use href="#bar-right" x="598" y="0" width="40" height="40"/>
    <use href="#triplet" x="644" y="0" width="40" height="40"/>
    <use href="#target" x="690" y="0" width="40" height="40"/>
    <use href="#triplet" x="736" y="0" width="40" height="40"/>
    <use href="#target" x="782" y="0" width="40" height="40"/>
    <use href="#target" x="828" y="0" width="40" height="40"/>
    <use href="#target" x="874" y="0" width="40" height="40"/>
    <use href="#diamond" x="0" y="46" width="40" height="40"/>
    <use href="#quad-LR" x="46" y="46" width="40" height="40"/>
    <use href="#bar-top" x="92" y="46" width="40" height="40"/>
    <use href="#target" x="138" y="46" width="40" height="40"/>
    <use href="#triplet" x="184" y="46" width="40" height="40"/>
    <use href="#target" x="230" y="46" width="40" height="40"/>
    <use href="#bar-right" x="276" y="46" width="40" height="40"/>
    <use href="#triplet" x="322" y="46" width="40" height="40"/>
    <use href="#bar-center" x="368" y="46" width="40" height="40"/>
    <use href="#top-and-right" x="414" y="46" width="40" height="40"/>
    <use href="#target" x="460" y="46" width="40" height="40"/>
    <use href="#quad-UL" x="506" y="46" width="40" height="40"/>
    <use href="#diamond" x="552" y="46" width="40" height="40"/>
    <use href="#target" x="598" y="46" width="40" height="40"/>
    <use href="#tri-edges" x="644" y="46" width="40" height="40"/>
    <use href="#diag-back" x="690" y="46" width="40" height="40"/>
    <use href="#top-and-right" x="736" y="46" width="40" height="40"/>
    <use href="#target" x="782" y="46" width="40" height="40"/>
    <use href="#triplet" x="828" y="46" width="40" height="40"/>
    <use href="#top-and-right" x="874" y="46" width="40" height="40"/>
    <use href="#target" x="0" y="92" width="40" height="40"/>
    <use href="#bar-bottom" x="46" y="92" width="40" height="40"/>
    <use href="#target" x="92" y="92" width="40" height="40"/>
    <use href="#target" x="138" y="92" width="40" height="40"/>
    <use href="#top-and-right" x="184" y="92" width="40" height="40"/>
    <use href="#tri-edges" x="230" y="92" width="40" height="40"/>
    <use href="#target" x="276" y="92" width="40" height="40"/>
    <use href="#bar-right" x="322" y="92" width="40" height="40"/>
    <use href="#quad-UL" x="368" y="92" width="40" height="40"/>
    <use href="#bar-top" x="414" y="92" width="40" height="40"/>
    <use href="#diamond" x="460" y="92" width="40" height="40"/>
    <use href="#triplet" x="506" y="92" width="40" height="40"/>
    <use href="#diag-back" x="552" y="92" width="40" height="40"/>
    <use href="#target" x="598" y="92" width="40" height="40"/>
    <use href="#target" x="644" y="92" width="40" height="40"/>
    <use href="#diag-back" x="690" y="92" width="40" height="40"/>
    <use href="#quad-LR" x="736" y="92" width="40" height="40"/>
    <use href="#diag-back" x="782" y="92" width="40" height="40"/>
    <use href="#triplet" x="828" y="92" width="40" height="40"/>
    <use href="#target" x="874" y="92" width="40" height="40"/>
    <use href="#diag-back" x="0" y="138" width="40" height="40"/>
    <use href="#bar-bottom" x="46" y="138" width="40" height="40"/>
    <use href="#triplet" x="92" y="138" width="40" height="40"/>
    <use href="#target" x="138" y="138" width="40" height="40"/>
    <use href="#bar-top" x="184" y="138" width="40" height="40"/>
    <use href="#top-and-right" x="230" y="138" width="40" height="40"/>
    <use href="#target" x="276" y="138" width="40" height="40"/>
    <use href="#bar-right" x="322" y="138" width="40" height="40"/>
    <use href="#target" x="368" y="138" width="40" height="40"/>
    <use href="#target" x="414" y="138" width="40" height="40"/>
    <use href="#bar-center" x="460" y="138" width="40" height="40"/>
    <use href="#diag-fwd" x="506" y="138" width="40" height="40"/>
    <use href="#target" x="552" y="138" width="40" height="40"/>
    <use href="#bar-bottom" x="598" y="138" width="40" height="40"/>
    <use href="#quad-LR" x="644" y="138" width="40" height="40"/>
    <use href="#bar-center" x="690" y="138" width="40" height="40"/>
    <use href="#tri-edges" x="736" y="138" width="40" height="40"/>
    <use href="#tri-edges" x="782" y="138" width="40" height="40"/>
    <use href="#top-and-right" x="828" y="138" width="40" height="40"/>
    <use href="#bar-top" x="874" y="138" width="40" height="40"/>
    <use href="#target" x="0" y="184" width="40" height="40"/>
    <use href="#target" x="46" y="184" width="40" height="40"/>
    <use href="#target" x="92" y="184" width="40" height="40"/>
    <use href="#bar-right" x="138" y="184" width="40" height="40"/>
    <use href="#top-and-right" x="184" y="184" width="40" height="40"/>
    <use href="#triplet" x="230" y="184" width="40" height="40"/>
    <use href="#bar-bottom" x="276" y="184" width="40" height="40"/>
    <use href="#target" x="322" y="184" width="40" height="40"/>
    <use href="#diag-fwd" x="368" y="184" width="40" height="40"/>
    <use href="#target" x="414" y="184" width="40" height="40"/>
    <use href="#diag-fwd" x="460" y="184" width="40" height="40"/>
    <use href="#target" x="506" y="184" width="40" height="40"/>
    <use href="#bar-right" x="552" y="184" width="40" height="40"/>
    <use href="#bar-bottom" x="598" y="184" width="40" height="40"/>
    <use href="#tri-edges" x="644" y="184" width="40" height="40"/>
    <use href="#diamond" x="690" y="184" width="40" height="40"/>
    <use href="#diag-back" x="736" y="184" width="40" height="40"/>
    <use href="#target" x="782" y="184" width="40" height="40"/>
    <use href="#triplet" x="828" y="184" width="40" height="40"/>
    <use href="#triplet" x="874" y="184" width="40" height="40"/>
    <use href="#bar-top" x="0" y="230" width="40" height="40"/>
    <use href="#bar-center" x="46" y="230" width="40" height="40"/>
    <use href="#target" x="92" y="230" width="40" height="40"/>
    <use href="#top-and-right" x="138" y="230" width="40" height="40"/>
    <use href="#bar-bottom" x="184" y="230" width="40" height="40"/>
    <use href="#target" x="230" y="230" width="40" height="40"/>
    <use href="#bar-top" x="276" y="230" width="40" height="40"/>
    <use href="#target" x="322" y="230" width="40" height="40"/>
    <use href="#diag-back" x="368" y="230" width="40" height="40"/>
    <use href="#triplet" x="414" y="230" width="40" height="40"/>
    <use href="#bar-right" x="460" y="230" width="40" height="40"/>
    <use href="#bar-top" x="506" y="230" width="40" height="40"/>
    <use href="#bar-right" x="552" y="230" width="40" height="40"/>
    <use href="#triplet" x="598" y="230" width="40" height="40"/>
    <use href="#bar-bottom" x="644" y="230" width="40" height="40"/>
    <use href="#diamond" x="690" y="230" width="40" height="40"/>
    <use href="#bar-top" x="736" y="230" width="40" height="40"/>
    <use href="#target" x="782" y="230" width="40" height="40"/>
    <use href="#target" x="828" y="230" width="40" height="40"/>
    <use href="#diag-back" x="874" y="230" width="40" height="40"/>
    <use href="#bar-top" x="0" y="276" width="40" height="40"/>
    <use href="#bar-bottom" x="46" y="276" width="40" height="40"/>
    <use href="#bar-top" x="92" y="276" width="40" height="40"/>
    <use href="#target" x="138" y="276" width="40" height="40"/>
    <use href="#quad-LR" x="184" y="276" width="40" height="40"/>
    <use href="#diag-back" x="230" y="276" width="40" height="40"/>
    <use href="#quad-LR" x="276" y="276" width="40" height="40"/>
    <use href="#diag-fwd" x="322" y="276" width="40" height="40"/>
    <use href="#target" x="368" y="276" width="40" height="40"/>
    <use href="#top-and-right" x="414" y="276" width="40" height="40"/>
    <use href="#quad-LR" x="460" y="276" width="40" height="40"/>
    <use href="#bar-bottom" x="506" y="276" width="40" height="40"/>
    <use href="#diamond" x="552" y="276" width="40" height="40"/>
    <use href="#target" x="598" y="276" width="40" height="40"/>
    <use href="#target" x="644" y="276" width="40" height="40"/>
    <use href="#target" x="690" y="276" width="40" height="40"/>
    <use href="#target" x="736" y="276" width="40" height="40"/>
    <use href="#bar-right" x="782" y="276" width="40" height="40"/>
    <use href="#target" x="828" y="276" width="40" height="40"/>
    <use href="#bar-center" x="874" y="276" width="40" height="40"/>
    <use href="#triplet" x="0" y="322" width="40" height="40"/>
    <use href="#bar-center" x="46" y="322" width="40" height="40"/>
    <use href="#bar-center" x="92" y="322" width="40" height="40"/>
    <use href="#target" x="138" y="322" width="40" height="40"/>
    <use href="#tri-edges" x="184" y="322" width="40" height="40"/>
    <use href="#quad-LR" x="230" y="322" width="40" height="40"/>
    <use href="#target" x="276" y="322" width="40" height="40"/>
    <use href="#bar-center" x="322" y="322" width="40" height="40"/>
    <use href="#bar-center" x="368" y="322" width="40" height="40"/>
    <use href="#diamond" x="414" y="322" width="40" height="40"/>
    <use href="#top-and-right" x="460" y="322" width="40" height="40"/>
    <use href="#diag-back" x="506" y="322" width="40" height="40"/>
    <use href="#quad-LR" x="552" y="322" width="40" height="40"/>
    <use href="#bar-right" x="598" y="322" width="40" height="40"/>
    <use href="#target" x="644" y="322" width="40" height="40"/>
    <use href="#target" x="690" y="322" width="40" height="40"/>
    <use href="#bar-right" x="736" y="322" width="40" height="40"/>
    <use href="#diag-fwd" x="782" y="322" width="40" height="40"/>
    <use href="#top-and-right" x="828" y="322" width="40" height="40"/>
    <use href="#target" x="874" y="322" width="40" height="40"/>
    <use href="#target" x="0" y="368" width="40" height="40"/>
    <use href="#quad-UL" x="46" y="368" width="40" height="40"/>
    <use href="#target" x="92" y="368" width="40" height="40"/>
    <use href="#bar-top" x="138" y="368" width="40" height="40"/>
    <use href="#target" x="184" y="368" width="40" height="40"/>
    <use href="#quad-UL" x="230" y="368" width="40" height="40"/>
    <use href="#bar-top" x="276" y="368" width="40" height="40"/>
    <use href="#tri-edges" x="322" y="368" width="40" height="40"/>
    <use href="#quad-LR" x="368" y="368" width="40" height="40"/>
    <use href="#target" x="414" y="368" width="40" height="40"/>
    <use href="#bar-center" x="460" y="368" width="40" height="40"/>
    <use href="#top-and-right" x="506" y="368" width="40" height="40"/>
    <use href="#bar-bottom" x="552" y="368" width="40" height="40"/>
    <use href="#tri-edges" x="598" y="368" width="40" height="40"/>
    <use href="#quad-UL" x="644" y="368" width="40" height="40"/>
    <use href="#target" x="690" y="368" width="40" height="40"/>
    <use href="#diag-back" x="736" y="368" width="40" height="40"/>
    <use href="#bar-top" x="782" y="368" width="40" height="40"/>
    <use href="#target" x="828" y="368" width="40" height="40"/>
    <use href="#target" x="874" y="368" width="40" height="40"/>
    <use href="#quad-LR" x="0" y="414" width="40" height="40"/>
    <use href="#target" x="46" y="414" width="40" height="40"/>
    <use href="#quad-UL" x="92" y="414" width="40" height="40"/>
    <use href="#target" x="138" y="414" width="40" height="40"/>
    <use href="#target" x="184" y="414" width="40" height="40"/>
    <use href="#bar-top" x="230" y="414" width="40" height="40"/>
    <use href="#target" x="276" y="414" width="40" height="40"/>
    <use href="#diamond" x="322" y="414" width="40" height="40"/>
    <use href="#quad-LR" x="368" y="414" width="40" height="40"/>
    <use href="#bar-bottom" x="414" y="414" width="40" height="40"/>
    <use href="#tri-edges" x="460" y="414" width="40" height="40"/>
    <use href="#bar-center" x="506" y="414" width="40" height="40"/>
    <use href="#bar-center" x="552" y="414" width="40" height="40"/>
    <use href="#bar-right" x="598" y="414" width="40" height="40"/>
    <use href="#diag-fwd" x="644" y="414" width="40" height="40"/>
    <use href="#bar-center" x="690" y="414" width="40" height="40"/>
    <use href="#diag-fwd" x="736" y="414" width="40" height="40"/>
    <use href="#target" x="782" y="414" width="40" height="40"/>
    <use href="#diamond" x="828" y="414" width="40" height="40"/>
    <use href="#bar-center" x="874" y="414" width="40" height="40"/>
    <use href="#top-and-right" x="0" y="460" width="40" height="40"/>
    <use href="#target" x="46" y="460" width="40" height="40"/>
    <use href="#target" x="92" y="460" width="40" height="40"/>
    <use href="#target" x="138" y="460" width="40" height="40"/>
    <use href="#bar-bottom" x="184" y="460" width="40" height="40"/>
    <use href="#triplet" x="230" y="460" width="40" height="40"/>
    <use href="#bar-right" x="276" y="460" width="40" height="40"/>
    <use href="#bar-bottom" x="322" y="460" width="40" height="40"/>
    <use href="#bar-bottom" x="368" y="460" width="40" height="40"/>
    <use href="#bar-bottom" x="414" y="460" width="40" height="40"/>
    <use href="#top-and-right" x="460" y="460" width="40" height="40"/>
    <use href="#triplet" x="506" y="460" width="40" height="40"/>
    <use href="#target" x="552" y="460" width="40" height="40"/>
    <use href="#quad-LR" x="598" y="460" width="40" height="40"/>
    <use href="#target" x="644" y="460" width="40" height="40"/>
    <use href="#target" x="690" y="460" width="40" height="40"/>
    <use href="#target" x="736" y="460" width="40" height="40"/>
    <use href="#bar-top" x="782" y="460" width="40" height="40"/>
    <use href="#diamond" x="828" y="460" width="40" height="40"/>
    <use href="#bar-right" x="874" y="460" width="40" height="40"/>
    <use href="#diag-back" x="0" y="506" width="40" height="40"/>
    <use href="#triplet" x="46" y="506" width="40" height="40"/>
    <use href="#target" x="92" y="506" width="40" height="40"/>
    <use href="#diamond" x="138" y="506" width="40" height="40"/>
    <use href="#triplet" x="184" y="506" width="40" height="40"/>
    <use href="#target" x="230" y="506" width="40" height="40"/>
    <use href="#target" x="276" y="506" width="40" height="40"/>
    <use href="#target" x="322" y="506" width="40" height="40"/>
    <use href="#diamond" x="368" y="506" width="40" height="40"/>
    <use href="#bar-center" x="414" y="506" width="40" height="40"/>
    <use href="#quad-LR" x="460" y="506" width="40" height="40"/>
    <use href="#diag-fwd" x="506" y="506" width="40" height="40"/>
    <use href="#top-and-right" x="552" y="506" width="40" height="40"/>
    <use href="#target" x="598" y="506" width="40" height="40"/>
    <use href="#diamond" x="644" y="506" width="40" height="40"/>
    <use href="#diamond" x="690" y="506" width="40" height="40"/>
    <use href="#top-and-right" x="736" y="506" width="40" height="40"/>
    <use href="#diamond" x="782" y="506" width="40" height="40"/>
    <use href="#bar-center" x="828" y="506" width="40" height="40"/>
    <use href="#quad-LR" x="874" y="506" width="40" height="40"/>
    <use href="#target" x="0" y="552" width="40" height="40"/>
    <use href="#quad-LR" x="46" y="552" width="40" height="40"/>
    <use href="#quad-UL" x="92" y="552" width="40" height="40"/>
    <use href="#quad-UL" x="138" y="552" width="40" height="40"/>
    <use href="#target" x="184" y="552" width="40" height="40"/>
    <use href="#diag-back" x="230" y="552" width="40" height="40"/>
    <use href="#bar-bottom" x="276" y="552" width="40" height="40"/>
    <use href="#diag-fwd" x="322" y="552" width="40" height="40"/>
    <use href="#bar-bottom" x="368" y="552" width="40" height="40"/>
    <use href="#target" x="414" y="552" width="40" height="40"/>
    <use href="#target" x="460" y="552" width="40" height="40"/>
    <use href="#target" x="506" y="552" width="40" height="40"/>
    <use href="#top-and-right" x="552" y="552" width="40" height="40"/>
    <use href="#bar-center" x="598" y="552" width="40" height="40"/>
    <use href="#quad-LR" x="644" y="552" width="40" height="40"/>
    <use href="#target" x="690" y="552" width="40" height="40"/>
    <use href="#bar-top" x="736" y="552" width="40" height="40"/>
    <use href="#tri-edges" x="782" y="552" width="40" height="40"/>
    <use href="#target" x="828" y="552" width="40" height="40"/>
    <use href="#top-and-right" x="874" y="552" width="40" height="40"/>
    <use href="#tri-edges" x="0" y="598" width="40" height="40"/>
    <use href="#diag-back" x="46" y="598" width="40" height="40"/>
    <use href="#diamond" x="92" y="598" width="40" height="40"/>
    <use href="#triplet" x="138" y="598" width="40" height="40"/>
    <use href="#diag-fwd" x="184" y="598" width="40" height="40"/>
    <use href="#diamond" x="230" y="598" width="40" height="40"/>
    <use href="#bar-top" x="276" y="598" width="40" height="40"/>
    <use href="#bar-top" x="322" y="598" width="40" height="40"/>
    <use href="#target" x="368" y="598" width="40" height="40"/>
    <use href="#target" x="414" y="598" width="40" height="40"/>
    <use href="#bar-center" x="460" y="598" width="40" height="40"/>
    <use href="#bar-top" x="506" y="598" width="40" height="40"/>
    <use href="#bar-top" x="552" y="598" width="40" height="40"/>
    <use href="#diag-fwd" x="598" y="598" width="40" height="40"/>
    <use href="#diag-fwd" x="644" y="598" width="40" height="40"/>
    <use href="#target" x="690" y="598" width="40" height="40"/>
    <use href="#target" x="736" y="598" width="40" height="40"/>
    <use href="#bar-right" x="782" y="598" width="40" height="40"/>
    <use href="#target" x="828" y="598" width="40" height="40"/>
    <use href="#bar-bottom" x="874" y="598" width="40" height="40"/>
    <use href="#target" x="0" y="644" width="40" height="40"/>
    <use href="#bar-right" x="46" y="644" width="40" height="40"/>
    <use href="#quad-UL" x="92" y="644" width="40" height="40"/>
    <use href="#target" x="138" y="644" width="40" height="40"/>
    <use href="#bar-top" x="184" y="644" width="40" height="40"/>
    <use href="#diag-fwd" x="230" y="644" width="40" height="40"/>
    <use href="#target" x="276" y="644" width="40" height="40"/>
    <use href="#bar-top" x="322" y="644" width="40" height="40"/>
    <use href="#triplet" x="368" y="644" width="40" height="40"/>
    <use href="#bar-center" x="414" y="644" width="40" height="40"/>
    <use href="#target" x="460" y="644" width="40" height="40"/>
    <use href="#target" x="506" y="644" width="40" height="40"/>
    <use href="#bar-top" x="552" y="644" width="40" height="40"/>
    <use href="#diag-fwd" x="598" y="644" width="40" height="40"/>
    <use href="#target" x="644" y="644" width="40" height="40"/>
    <use href="#target" x="690" y="644" width="40" height="40"/>
    <use href="#bar-top" x="736" y="644" width="40" height="40"/>
    <use href="#top-and-right" x="782" y="644" width="40" height="40"/>
    <use href="#bar-right" x="828" y="644" width="40" height="40"/>
    <use href="#diag-back" x="874" y="644" width="40" height="40"/>
    <use href="#diamond" x="0" y="690" width="40" height="40"/>
    <use href="#quad-UL" x="46" y="690" width="40" height="40"/>
    <use href="#bar-bottom" x="92" y="690" width="40" height="40"/>
    <use href="#diag-fwd" x="138" y="690" width="40" height="40"/>
    <use href="#diag-back" x="184" y="690" width="40" height="40"/>
    <use href="#target" x="230" y="690" width="40" height="40"/>
    <use href="#target" x="276" y="690" width="40" height="40"/>
    <use href="#bar-right" x="322" y="690" width="40" height="40"/>
    <use href="#diag-fwd" x="368" y="690" width="40" height="40"/>
    <use href="#target" x="414" y="690" width="40" height="40"/>
    <use href="#bar-right" x="460" y="690" width="40" height="40"/>
    <use href="#bar-right" x="506" y="690" width="40" height="40"/>
    <use href="#target" x="552" y="690" width="40" height="40"/>
    <use href="#bar-right" x="598" y="690" width="40" height="40"/>
    <use href="#target" x="644" y="690" width="40" height="40"/>
    <use href="#quad-LR" x="690" y="690" width="40" height="40"/>
    <use href="#diamond" x="736" y="690" width="40" height="40"/>
    <use href="#diamond" x="782" y="690" width="40" height="40"/>
    <use href="#bar-center" x="828" y="690" width="40" height="40"/>
    <use href="#diamond" x="874" y="690" width="40" height="40"/>
    <use href="#target" x="0" y="736" width="40" height="40"/>
    <use href="#target" x="46" y="736" width="40" height="40"/>
    <use href="#target" x="92" y="736" width="40" height="40"/>
    <use href="#bar-bottom" x="138" y="736" width="40" height="40"/>
    <use href="#bar-right" x="184" y="736" width="40" height="40"/>
    <use href="#target" x="230" y="736" width="40" height="40"/>
    <use href="#bar-top" x="276" y="736" width="40" height="40"/>
    <use href="#quad-UL" x="322" y="736" width="40" height="40"/>
    <use href="#quad-LR" x="368" y="736" width="40" height="40"/>
    <use href="#target" x="414" y="736" width="40" height="40"/>
    <use href="#diag-fwd" x="460" y="736" width="40" height="40"/>
    <use href="#target" x="506" y="736" width="40" height="40"/>
    <use href="#tri-edges" x="552" y="736" width="40" height="40"/>
    <use href="#bar-bottom" x="598" y="736" width="40" height="40"/>
    <use href="#bar-right" x="644" y="736" width="40" height="40"/>
    <use href="#bar-top" x="690" y="736" width="40" height="40"/>
    <use href="#quad-UL" x="736" y="736" width="40" height="40"/>
    <use href="#tri-edges" x="782" y="736" width="40" height="40"/>
    <use href="#diamond" x="828" y="736" width="40" height="40"/>
    <use href="#target" x="874" y="736" width="40" height="40"/>
    <use href="#diag-back" x="0" y="782" width="40" height="40"/>
    <use href="#bar-bottom" x="46" y="782" width="40" height="40"/>
    <use href="#bar-right" x="92" y="782" width="40" height="40"/>
    <use href="#target" x="138" y="782" width="40" height="40"/>
    <use href="#diag-back" x="184" y="782" width="40" height="40"/>
    <use href="#tri-edges" x="230" y="782" width="40" height="40"/>
    <use href="#target" x="276" y="782" width="40" height="40"/>
    <use href="#bar-top" x="322" y="782" width="40" height="40"/>
    <use href="#top-and-right" x="368" y="782" width="40" height="40"/>
    <use href="#diag-fwd" x="414" y="782" width="40" height="40"/>
    <use href="#target" x="460" y="782" width="40" height="40"/>
    <use href="#target" x="506" y="782" width="40" height="40"/>
    <use href="#diamond" x="552" y="782" width="40" height="40"/>
    <use href="#quad-UL" x="598" y="782" width="40" height="40"/>
    <use href="#bar-center" x="644" y="782" width="40" height="40"/>
    <use href="#bar-center" x="690" y="782" width="40" height="40"/>
    <use href="#target" x="736" y="782" width="40" height="40"/>
    <use href="#diamond" x="782" y="782" width="40" height="40"/>
    <use href="#bar-right" x="828" y="782" width="40" height="40"/>
    <use href="#bar-top" x="874" y="782" width="40" height="40"/>
    <use href="#bar-bottom" x="0" y="828" width="40" height="40"/>
    <use href="#diag-fwd" x="46" y="828" width="40" height="40"/>
    <use href="#quad-LR" x="92" y="828" width="40" height="40"/>
    <use href="#triplet" x="138" y="828" width="40" height="40"/>
    <use href="#quad-UL" x="184" y="828" width="40" height="40"/>
    <use href="#target" x="230" y="828" width="40" height="40"/>
    <use href="#bar-bottom" x="276" y="828" width="40" height="40"/>
    <use href="#target" x="322" y="828" width="40" height="40"/>
    <use href="#bar-right" x="368" y="828" width="40" height="40"/>
    <use href="#target" x="414" y="828" width="40" height="40"/>
    <use href="#quad-LR" x="460" y="828" width="40" height="40"/>
    <use href="#target" x="506" y="828" width="40" height="40"/>
    <use href="#diamond" x="552" y="828" width="40" height="40"/>
    <use href="#target" x="598" y="828" width="40" height="40"/>
    <use href="#target" x="644" y="828" width="40" height="40"/>
    <use href="#quad-UL" x="690" y="828" width="40" height="40"/>
    <use href="#tri-edges" x="736" y="828" width="40" height="40"/>
    <use href="#quad-LR" x="782" y="828" width="40" height="40"/>
    <use href="#quad-LR" x="828" y="828" width="40" height="40"/>
    <use href="#target" x="874" y="828" width="40" height="40"/>
    <use href="#diamond" x="0" y="874" width="40" height="40"/>
    <use href="#bar-right" x="46" y="874" width="40" height="40"/>
    <use href="#target" x="92" y="874" width="40" height="40"/>
    <use href="#quad-UL" x="138" y="874" width="40" height="40"/>
    <use href="#bar-right" x="184" y="874" width="40" height="40"/>
    <use href="#target" x="230" y="874" width="40" height="40"/>
    <use href="#target" x="276" y="874" width="40" height="40"/>
    <use href="#quad-UL" x="322" y="874" width="40" height="40"/>
    <use href="#diamond" x="368" y="874" width="40" height="40"/>
    <use href="#quad-UL" x="414" y="874" width="40" height="40"/>
    <use href="#bar-center" x="460" y="874" width="40" height="40"/>
    <use href="#top-and-right" x="506" y="874" width="40" height="40"/>
    <use href="#target" x="552" y="874" width="40" height="40"/>
    <use href="#diag-fwd" x="598" y="874" width="40" height="40"/>
    <use href="#bar-right" x="644" y="874" width="40" height="40"/>
    <use href="#top-and-right" x="690" y="874" width="40" height="40"/>
    <use href="#bar-top" x="736" y="874" width="40" height="40"/>
    <use href="#quad-LR" x="782" y="874" width="40" height="40"/>
    <use href="#target" x="828" y="874" width="40" height="40"/>
    <use href="#diamond" x="874" y="874" width="40" height="40"/>
  </g>
</svg>
